<?xml version="1.0" encoding="UTF-8" standalone="no"?>
<svg
   xmlns:dc="http://purl.org/dc/elements/1.1/"
   xmlns:cc="http://creativecommons.org/ns#"
   xmlns:rdf="http://www.w3.org/1999/02/22-rdf-syntax-ns#"
   xmlns:svg="http://www.w3.org/2000/svg"
   xmlns="http://www.w3.org/2000/svg"
   xmlns:sodipodi="http://sodipodi.sourceforge.net/DTD/sodipodi-0.dtd"
   xmlns:inkscape="http://www.inkscape.org/namespaces/inkscape"
   version="1.1"
   id="svg52238"
   inkscape:version="1.0.2 (e86c870879, 2021-01-15)"
   sodipodi:docname="Procter_and_Gamble_Logo.svg"
   x="0px"
   y="0px"
   viewBox="0 0 1000 434.05042"
   xml:space="preserve"
   width="1000"
   height="434.05042"><metadata
   id="metadata17"><rdf:RDF><cc:Work
       rdf:about=""><dc:format>image/svg+xml</dc:format><dc:type
         rdf:resource="http://purl.org/dc/dcmitype/StillImage" /></cc:Work></rdf:RDF></metadata><defs
   id="defs15"><path
     id="SVGID_1_"
     d="m 494.404,0.035 c -205.471,43.294 -361.216,250.642 -361.216,499.93 0,2.205 0.013,4.403 0.035,6.604 1.735,157.032 65.271,296.89 163.864,388.774 34.647,32.288 73.625,58.653 115.769,77.756 26.062,11.814 53.337,20.852 81.548,26.796 10.509,0.117 21.001,-0.054 31.5,-0.586 55.788,-2.854 109.162,-14.839 158.655,-34.509 54.376,-21.61 104.072,-52.484 147.122,-90.68 7.495,-6.647 14.789,-13.521 21.872,-20.604 12.423,-12.42 24.197,-25.497 35.263,-39.163 68.82,-85.01 110.328,-193.035 111.171,-310.729 0.009,-1.218 0.013,-2.439 0.013,-3.659 C 1000,361.893 944.035,236.893 853.554,146.41 846.471,139.33 839.177,132.459 831.682,125.807 788.632,87.613 738.936,56.74 684.56,35.128 635.066,15.463 581.692,3.471 525.902,0.622 517.484,0.194 509.066,0 500.642,0 c -2.081,0 -4.157,0.013 -6.238,0.035" /><rect
     id="SVGID_3_"
     x="133.188"
     y="-0.001"
     width="866.81299"
     height="1000.011" /><path
     id="SVGID_5_"
     d="M 0,499.965 C 0,774.236 220.845,996.888 494.404,999.895 288.933,956.602 133.188,749.253 133.188,499.965 133.188,250.677 288.933,43.329 494.404,0.035 220.843,3.04 0,225.694 0,499.965" /><rect
     id="SVGID_8_"
     x="126.55"
     y="273.76401"
     width="857.29199"
     height="466.37601" /></defs><sodipodi:namedview
   pagecolor="#ffffff"
   bordercolor="#666666"
   borderopacity="1"
   objecttolerance="10"
   gridtolerance="10"
   guidetolerance="10"
   inkscape:pageopacity="0"
   inkscape:pageshadow="2"
   inkscape:window-width="1366"
   inkscape:window-height="705"
   id="namedview13"
   showgrid="false"
   inkscape:zoom="0.5"
   inkscape:cx="496.9115"
   inkscape:cy="210.12226"
   inkscape:window-x="-8"
   inkscape:window-y="-8"
   inkscape:window-maximized="1"
   inkscape:current-layer="svg52238" />
<style
   type="text/css"
   id="style2">
	.st0{fill:#005BA7;}
</style>

<g
   id="g170"><path
     style="fill:#005ba7;fill-opacity:1;stroke-width:1.44713"
     d="m 729.08282,198.70347 c -75.04526,234.63474 59.01541,201.19881 65.41461,199.9152 l 47.90434,-152.78362 c 1.98112,-7.4918 3.75965,-25.8443 -20.59844,-36.00025 h 166.8396 c -20.71277,7.68136 -32.46202,19.73595 -37.6167,38.1912 l -48.0476,152.77929 c -8.52649,4.15905 -124.50092,64.11942 -229.64359,12.15733 C 575.18491,364.39984 594.17993,183.28865 671.52758,94.871913 797.33091,-48.890308 975.42629,11.427511 1000,18.789061 L 982.24227,75.175027 C 977.63171,71.839393 926.42068,23.305553 864.37933,38.166129 790.51059,55.942672 745.2791,148.34336 729.08282,198.70347"
     id="path163" /><path
     id="path161"
     style="fill:#005ba7;fill-opacity:1;stroke-width:1.44713"
     d="m 530.83984,100.80078 c -5.47714,0.0102 -11.09039,0.53528 -16.75586,1.59766 -20.89511,3.93475 -38.69187,15.03759 -47.58593,23.33398 -31.59663,29.48093 -35.66602,78.27829 -35.66602,100.29492 0,5.37175 0.23751,9.44702 0.45313,11.82032 -1.79444,0.71922 -5.03907,1.95117 -5.03907,1.95117 -23.00357,8.46137 -84.52509,24.94451 -106.56054,75.5 -2.81611,6.36447 -6.78907,20.21605 -6.78907,36.39062 0,13.87219 2.92702,29.36842 11.92383,43.50977 15.5031,24.21193 41.88644,39.55407 83.94727,38.82617 45.82771,-0.7583 90.87785,-32.05265 98.96875,-37.75 7.97948,7.35287 28.46629,26.61704 39.19531,31.71094 l 104.38477,-0.0508 C 617.90219,417.21666 568.46719,385.63561 548.83398,363.12695 564.73938,345.72088 584.41836,323.92059 588,279.49805 h -54.18945 c 0,0 10.43554,5.96448 10.43554,18.66015 0,11.78977 -4.68392,27.96074 -13.8457,39.47266 -15.84752,-23.51586 -32.81713,-50.35994 -38.74023,-89.69727 21.19466,-10.6089 51.09699,-22.01616 74.85742,-42.80273 22.47826,-19.74464 27.69775,-38.32292 28.05664,-50.46289 v -1.53711 c 0,-12.65225 -4.97206,-24.59511 -14.09766,-33.68164 -12.25086,-12.14685 -30.07549,-18.68503 -49.63672,-18.64844 z m 0.15821,23.16211 c 2.27548,-0.03 4.49923,0.31925 6.63086,1.06055 9.03733,3.07949 10.13751,11.53249 9.28515,20.52929 -5.43397,34.0611 -49.46599,68.36736 -60.25,73.04883 -1.91022,-19.14119 -1.0732,-49.3095 15.00586,-73.99609 8.6268,-13.26765 19.4677,-20.51265 29.32813,-20.64258 z m -94.13477,147.40234 c 8.80868,34.94674 28.09194,74.33754 48.72656,101.67383 -6.16622,3.85081 -30.35888,16.12272 -53.17578,18.28906 -21.02969,1.95074 -56.04602,-6.20505 -55.97656,-48.40624 0.042,-36.04366 39.25861,-62.39487 60.42578,-71.55665 z" /><path
     id="path155"
     style="fill:#005ba7;fill-opacity:1;stroke-width:1.44713"
     d="M 131.63867,5.0214844 C 147.63524,16.021118 144.99696,30.515864 141.87695,39.470703 L 30.130859,396.64648 C 25.65344,410.79363 8.976546,425.62172 0,427.98633 l 155.28516,-0.0508 c -8.5207,-1.56145 -20.77081,-13.6669 -16.36719,-30.29297 L 179.5,268.46875 c 0.001,10e-4 186.77349,25.20213 243.30273,-114.41406 C 470.29753,36.7735 381.4308,4.9795184 323.44141,5.0214844 Z M 251.89648,37.728516 h 20.01563 c 20.25114,0 76.55385,2.701178 40.26562,109.167964 C 274.09072,258.66265 189.75,235.66016 189.75,235.66016 Z" /></g></svg>
